<svg id="eUBxL3ucJti1" xmlns="http://www.w3.org/2000/svg" xmlns:xlink="http://www.w3.org/1999/xlink" viewBox="0 0 48 48" shape-rendering="geometricPrecision" text-rendering="geometricPrecision"><path d="M46,40.02c.005-.262-.092-.526-.293-.727l-9-9c-.391-.391-1.023-.391-1.414,0L35,30.586l-1.953-1.953C34.287,26.362,35,23.764,35,21c0-.289,0-1.615,0-2c0-8.822-7.178-16-16-16s-16,7.178-16,16c0,.338,0,1.662,0,2c0,8.822,7.178,16,16,16c3.285,0,6.34-.998,8.884-2.702l2.409,2.409.293.293-.293.293c-.391.391-.391,1.023,0,1.414l7.274,7.274c.671.671,1.552,1.006,2.433,1.006s1.762-.335,2.433-1.006l3.274-3.274c.195-.195.293-.451.293-.707s-.005-1.731,0-1.98Z" fill="#fff"/><rect width="7.071" height="4.243" rx="0" ry="0" transform="matrix(.707094 0.707119-.707119 0.707094 29.99954 26.9999)" fill="#fff"/><path d="M32,36c-.256,0-.512-.098-.707-.293l-5-5c-.391-.391-.391-1.023,0-1.414l3-3c.391-.391,1.023-.391,1.414,0l5,5c.391.391.391,1.023,0,1.414l-3,3c-.195.195-.451.293-.707.293Zm-3.586-6L32,33.586L33.586,32L30,28.414L28.414,30Z" fill="#fff"/><path d="M31,36l7.275,7.275c.953.953,2.498.953,3.451,0L45,40l-9-9-5,5Z"/><path d="M40,44.989c-.919,0-1.783-.358-2.433-1.008l-7.274-7.274C30.105,36.52,30,36.266,30,36s.105-.52.293-.707l5-5c.391-.391,1.023-.391,1.414,0l9,9c.188.187.293.441.293.707s-.105.52-.293.707l-3.275,3.274c-.649.65-1.513,1.008-2.432,1.008ZM32.414,36l6.568,6.567c.544.545,1.493.545,2.036,0L43.586,40L36,32.414L32.414,36Z" fill="#fff"/><circle r="15" transform="translate(19 19)"/><path d="M19,35C10.178,35,3,27.822,3,19s7.178-16,16-16s16,7.178,16,16-7.178,16-16,16ZM19,5C11.28,5,5,11.28,5,19s6.28,14,14,14s14-6.28,14-14-6.28-14-14-14Z" fill="#fff"/></svg>
